<svg xmlns="http://www.w3.org/2000/svg" viewBox="0 0 450 700" width="450" height="700" style="background:#FFFFFF; font-family:'Courier New', monospace; color:#111;">
  <rect width="450" height="700" fill="#FCFCFC" stroke="#DDDDDD" stroke-width="2" rx="8"/>
  
  <!-- Header -->
  <text x="225" y="50" font-size="22" font-weight="bold" text-anchor="middle" fill="#FF9900">amazon.in</text>
  <text x="225" y="75" font-size="13" font-weight="bold" text-anchor="middle" fill="#111">Tax Invoice / Bill of Supply</text>
  <text x="225" y="92" font-size="11" text-anchor="middle" fill="#555">Sold by: Appario Retail Private Ltd</text>
  <text x="225" y="110" font-size="11" text-anchor="middle" fill="#666">GSTIN: 29AABCA1234F1Z5</text>

  <!-- Divider -->
  <line x1="30" y1="130" x2="420" y2="130" stroke="#333" stroke-dasharray="4 3"/>

  <!-- Info -->
  <text x="35" y="155" font-size="12">ORDER #: 402-8921471-19284</text>
  <text x="35" y="175" font-size="12">INVOICE DATE: 2026-10-06</text>
  <text x="280" y="175" font-size="12">SHIPPED: Express</text>

  <!-- Divider -->
  <line x1="30" y1="195" x2="420" y2="195" stroke="#333"/>

  <!-- Item Table Header -->
  <text x="35" y="215" font-size="12" font-weight="bold">ITEM DESCRIPTION</text>
  <text x="320" y="215" font-size="12" font-weight="bold" text-anchor="end">QTY</text>
  <text x="415" y="215" font-size="12" font-weight="bold" text-anchor="end">PRICE</text>

  <line x1="30" y1="225" x2="420" y2="225" stroke="#CCC"/>

  <!-- Items -->
  <text x="35" y="255" font-size="12" font-weight="bold">SanDisk Extreme 1TB SSD Portable</text>
  <text x="35" y="275" font-size="11" fill="#666">HSN: 84717020 | Type-C 1050MB/s</text>
  <text x="320" y="255" font-size="13" text-anchor="end">1</text>
  <text x="415" y="255" font-size="13" text-anchor="end">₹2,117.80</text>

  <!-- Divider -->
  <line x1="30" y1="310" x2="420" y2="310" stroke="#CCC"/>

  <!-- Subtotal -->
  <text x="230" y="340" font-size="13">Net Taxable Value:</text>
  <text x="415" y="340" font-size="13" text-anchor="end">₹2,117.80</text>

  <text x="230" y="365" font-size="12" fill="#555">IGST @ 18%:</text>
  <text x="415" y="365" font-size="12" text-anchor="end" fill="#555">₹381.20</text>

  <line x1="220" y1="385" x2="420" y2="385" stroke="#333" stroke-width="1.5"/>

  <!-- Grand Total -->
  <text x="200" y="420" font-size="18" font-weight="bold">INVOICE TOTAL:</text>
  <text x="415" y="420" font-size="20" font-weight="bold" text-anchor="end" fill="#154A82">₹2,499.00</text>

  <line x1="30" y1="450" x2="420" y2="450" stroke="#333" stroke-dasharray="4 3"/>

  <!-- Category & Payment Details -->
  <text x="35" y="485" font-size="12">Payment Method: HDFC Credit Card (ending 9102)</text>
  <text x="35" y="505" font-size="12">Category: Electronics</text>
  <text x="35" y="525" font-size="12">Status: Payment Confirmed</text>

  <!-- Barcode / Footer -->
  <rect x="75" y="565" width="300" height="40" fill="#333" opacity="0.1"/>
  <text x="225" y="590" font-size="13" text-anchor="middle" letter-spacing="4">*AZ-2499-GST-1TB*</text>

  <text x="225" y="640" font-size="11" text-anchor="middle" fill="#777">Customer copy · Computer-generated tax invoice</text>
</svg>
